<svg width="89" height="40" viewBox="0 0 89 40" fill="none" xmlns="http://www.w3.org/2000/svg">
<path fill-rule="evenodd" clip-rule="evenodd" d="M44.4659 2C39.4528 2 35.375 6.03793 35.375 10.9998L35.4265 18.9997C35.674 20.6907 37.1336 21.9996 38.9104 21.9996C40.0962 21.9996 41.0053 21.5826 41.6093 20.8257C41.985 21.199 42.4316 21.4951 42.9235 21.6966C43.4153 21.8982 43.9426 22.0013 44.4749 22C45.0072 21.9987 45.534 21.893 46.0248 21.689C46.5157 21.4851 46.9608 21.1869 47.3346 20.8117C47.9417 21.5736 48.8538 21.9996 50.0215 21.9996C51.971 21.9996 53.5568 20.4297 53.5568 18.4997V10.9998C53.5568 6.03793 49.479 2 44.4659 2ZM41.2984 12.9661C42.5257 12.9661 43.5206 11.9712 43.5206 10.7439C43.5206 9.51662 42.5257 8.5217 41.2984 8.5217C40.0711 8.5217 39.0762 9.51662 39.0762 10.7439C39.0762 11.9712 40.0711 12.9661 41.2984 12.9661ZM50.1871 10.7439C50.1871 11.9712 49.1922 12.9661 47.9649 12.9661C46.7376 12.9661 45.7427 11.9712 45.7427 10.7439C45.7427 9.51662 46.7376 8.5217 47.9649 8.5217C49.1922 8.5217 50.1871 9.51662 50.1871 10.7439Z" fill="#22A2BD"/>
<path d="M17.7012 36H16.5703V28.3945H12.3633V36H11.2383V27.4688H17.7012V36ZM22.7129 36.1172C21.8535 36.1172 21.1543 35.8359 20.6152 35.2734C20.0762 34.707 19.8066 33.9512 19.8066 33.0059V32.8066C19.8066 32.1777 19.9258 31.6172 20.1641 31.125C20.4062 30.6289 20.7422 30.2422 21.1719 29.9648C21.6055 29.6836 22.0742 29.543 22.5781 29.543C23.4023 29.543 24.043 29.8145 24.5 30.3574C24.957 30.9004 25.1855 31.6777 25.1855 32.6895V33.1406H20.8906C20.9062 33.7656 21.0879 34.2715 21.4355 34.6582C21.7871 35.041 22.2324 35.2324 22.7715 35.2324C23.1543 35.2324 23.4785 35.1543 23.7441 34.998C24.0098 34.8418 24.2422 34.6348 24.4414 34.377L25.1035 34.8926C24.5723 35.709 23.7754 36.1172 22.7129 36.1172ZM22.5781 30.4336C22.1406 30.4336 21.7734 30.5938 21.4766 30.9141C21.1797 31.2305 20.9961 31.6758 20.9258 32.25H24.1016V32.168C24.0703 31.6172 23.9219 31.1914 23.6562 30.8906C23.3906 30.5859 23.0312 30.4336 22.5781 30.4336ZM32.3008 32.9004C32.3008 33.8652 32.0801 34.6426 31.6387 35.2324C31.1973 35.8223 30.5996 36.1172 29.8457 36.1172C29.0762 36.1172 28.4707 35.873 28.0293 35.3848V38.4375H26.9453V29.6602H27.9355L27.9883 30.3633C28.4297 29.8164 29.043 29.543 29.8281 29.543C30.5898 29.543 31.1914 29.8301 31.6328 30.4043C32.0781 30.9785 32.3008 31.7773 32.3008 32.8008V32.9004ZM31.2168 32.7773C31.2168 32.0625 31.0645 31.498 30.7598 31.084C30.4551 30.6699 30.0371 30.4629 29.5059 30.4629C28.8496 30.4629 28.3574 30.7539 28.0293 31.3359V34.3652C28.3535 34.9434 28.8496 35.2324 29.5176 35.2324C30.0371 35.2324 30.4492 35.0273 30.7539 34.6172C31.0625 34.2031 31.2168 33.5898 31.2168 32.7773ZM36.7266 35.2324C37.1133 35.2324 37.4512 35.1152 37.7402 34.8809C38.0293 34.6465 38.1895 34.3535 38.2207 34.002H39.2461C39.2266 34.3652 39.1016 34.7109 38.8711 35.0391C38.6406 35.3672 38.332 35.6289 37.9453 35.8242C37.5625 36.0195 37.1562 36.1172 36.7266 36.1172C35.8633 36.1172 35.1758 35.8301 34.6641 35.2559C34.1562 34.6777 33.9023 33.8887 33.9023 32.8887V32.707C33.9023 32.0898 34.0156 31.541 34.2422 31.0605C34.4688 30.5801 34.793 30.207 35.2148 29.9414C35.6406 29.6758 36.1426 29.543 36.7207 29.543C37.4316 29.543 38.0215 29.7559 38.4902 30.1816C38.9629 30.6074 39.2148 31.1602 39.2461 31.8398H38.2207C38.1895 31.4297 38.0332 31.0938 37.752 30.832C37.4746 30.5664 37.1309 30.4336 36.7207 30.4336C36.1699 30.4336 35.7422 30.6328 35.4375 31.0312C35.1367 31.4258 34.9863 31.998 34.9863 32.748V32.9531C34.9863 33.6836 35.1367 34.2461 35.4375 34.6406C35.7383 35.0352 36.168 35.2324 36.7266 35.2324ZM40.6777 32.7715C40.6777 32.1504 40.7988 31.5918 41.041 31.0957C41.2871 30.5996 41.627 30.2168 42.0605 29.9473C42.498 29.6777 42.9961 29.543 43.5547 29.543C44.418 29.543 45.1152 29.8418 45.6465 30.4395C46.1816 31.0371 46.4492 31.832 46.4492 32.8242V32.9004C46.4492 33.5176 46.3301 34.0723 46.0918 34.5645C45.8574 35.0527 45.5195 35.4336 45.0781 35.707C44.6406 35.9805 44.1367 36.1172 43.5664 36.1172C42.707 36.1172 42.0098 35.8184 41.4746 35.2207C40.9434 34.623 40.6777 33.832 40.6777 32.8477V32.7715ZM41.7676 32.9004C41.7676 33.6035 41.9297 34.168 42.2539 34.5938C42.582 35.0195 43.0195 35.2324 43.5664 35.2324C44.1172 35.2324 44.5547 35.0176 44.8789 34.5879C45.2031 34.1543 45.3652 33.5488 45.3652 32.7715C45.3652 32.0762 45.1992 31.5137 44.8672 31.084C44.5391 30.6504 44.1016 30.4336 43.5547 30.4336C43.0195 30.4336 42.5879 30.6465 42.2598 31.0723C41.9316 31.498 41.7676 32.1074 41.7676 32.9004ZM53.4883 36H52.4043V33.293H49.4922V36H48.4023V29.6602H49.4922V32.4082H52.4043V29.6602H53.4883V36ZM59.6484 36C59.5859 35.875 59.5352 35.6523 59.4961 35.332C58.9922 35.8555 58.3906 36.1172 57.6914 36.1172C57.0664 36.1172 56.5527 35.9414 56.1504 35.5898C55.752 35.2344 55.5527 34.7852 55.5527 34.2422C55.5527 33.582 55.8027 33.0703 56.3027 32.707C56.8066 32.3398 57.5137 32.1562 58.4238 32.1562H59.4785V31.6582C59.4785 31.2793 59.3652 30.9785 59.1387 30.7559C58.9121 30.5293 58.5781 30.416 58.1367 30.416C57.75 30.416 57.4258 30.5137 57.1641 30.709C56.9023 30.9043 56.7715 31.1406 56.7715 31.418H55.6816C55.6816 31.1016 55.793 30.7969 56.0156 30.5039C56.2422 30.207 56.5469 29.9727 56.9297 29.8008C57.3164 29.6289 57.7402 29.543 58.2012 29.543C58.9316 29.543 59.5039 29.7266 59.918 30.0938C60.332 30.457 60.5469 30.959 60.5625 31.5996V34.5176C60.5625 35.0996 60.6367 35.5625 60.7852 35.9062V36H59.6484ZM57.8496 35.1738C58.1895 35.1738 58.5117 35.0859 58.8164 34.9102C59.1211 34.7344 59.3418 34.5059 59.4785 34.2246V32.9238H58.6289C57.3008 32.9238 56.6367 33.3125 56.6367 34.0898C56.6367 34.4297 56.75 34.6953 56.9766 34.8867C57.2031 35.0781 57.4941 35.1738 57.8496 35.1738ZM67.8184 33.2461H67.0566V36H65.9727V33.2461H65.2109L63.4355 36H62.0645L64.332 32.7188L62.2812 29.6602H63.5938L65.2285 32.2852H65.9727V29.6602H67.0566V32.2852H67.7949L69.4414 29.6602H70.7539L68.6973 32.7246L70.9648 36H69.5938L67.8184 33.2461ZM76.5508 29.6602H77.6348V36H76.5508V31.377L73.627 36H72.543V29.6602H73.627V34.2891L76.5508 29.6602Z" fill="#22A2BD"/>
</svg>
