<svg width="90" height="40" viewBox="0 0 90 40" fill="none" xmlns="http://www.w3.org/2000/svg">
<path d="M52.075 7.5H37.675C36.6809 7.5 35.875 8.30589 35.875 9.3V19.2C35.875 20.1941 36.6809 21 37.675 21H52.075C53.0691 21 53.875 20.1941 53.875 19.2V9.3C53.875 8.30589 53.0691 7.5 52.075 7.5Z" stroke="#22A2BD" stroke-width="2" stroke-linecap="round" stroke-linejoin="round"/>
<path d="M49.376 3L44.876 7.5L40.376 3" stroke="#22A2BD" stroke-width="2" stroke-linecap="round" stroke-linejoin="round"/>
<path d="M19.8613 33.293C19.9707 33.9961 20.1914 34.4902 20.5234 34.7754C20.8594 35.0566 21.3398 35.1973 21.9648 35.1973C22.6406 35.1973 23.1738 34.9336 23.5645 34.4062C23.959 33.8789 24.1602 33.1465 24.168 32.209H20.8105V31.2832H24.168C24.168 30.3574 23.9648 29.625 23.5586 29.0859C23.1562 28.5469 22.5918 28.2773 21.8652 28.2773C21.2793 28.2773 20.8223 28.4297 20.4941 28.7344C20.1699 29.0391 19.959 29.5312 19.8613 30.2109H18.7305C18.8203 29.3164 19.1387 28.6172 19.6855 28.1133C20.2324 27.6055 20.959 27.3516 21.8652 27.3516C22.5527 27.3516 23.1562 27.5156 23.6758 27.8438C24.1992 28.168 24.5996 28.6328 24.877 29.2383C25.1582 29.8398 25.2988 30.5332 25.2988 31.3184V32.168C25.2988 32.9531 25.1602 33.6465 24.8828 34.248C24.6055 34.8496 24.2129 35.3125 23.7051 35.6367C23.2012 35.957 22.6211 36.1172 21.9648 36.1172C21.0352 36.1172 20.2891 35.873 19.7266 35.3848C19.168 34.8926 18.8359 34.1953 18.7305 33.293H19.8613ZM32.4609 36H31.377V30.5566H28.459V36H27.3691V29.6602H32.4609V36ZM38.8027 29.6602H39.8867V36H38.8027V31.377L35.8789 36H34.7949V29.6602H35.8789V34.2891L38.8027 29.6602ZM45.6133 31.3945C45.6133 31.0977 45.5 30.8633 45.2734 30.6914C45.0469 30.5156 44.7363 30.4277 44.3418 30.4277C43.959 30.4277 43.6387 30.5273 43.3809 30.7266C43.127 30.9258 43 31.1602 43 31.4297H41.9219C41.9219 30.8789 42.1523 30.4277 42.6133 30.0762C43.0742 29.7246 43.6504 29.5488 44.3418 29.5488C45.084 29.5488 45.6621 29.709 46.0762 30.0293C46.4902 30.3457 46.6973 30.7988 46.6973 31.3887C46.6973 31.6738 46.6113 31.9355 46.4395 32.1738C46.2676 32.4121 46.0234 32.6016 45.707 32.7422C46.4453 32.9922 46.8145 33.4844 46.8145 34.2188C46.8145 34.8008 46.5898 35.2617 46.1406 35.6016C45.6914 35.9414 45.0918 36.1113 44.3418 36.1113C43.6113 36.1113 43.0078 35.9336 42.5312 35.5781C42.0586 35.2188 41.8223 34.7344 41.8223 34.125H42.9004C42.9004 34.4336 43.0371 34.6992 43.3105 34.9219C43.5879 35.1406 43.9316 35.25 44.3418 35.25C44.7559 35.25 45.0898 35.1543 45.3438 34.9629C45.5977 34.7715 45.7246 34.5234 45.7246 34.2188C45.7246 33.8633 45.6172 33.6094 45.4023 33.457C45.1914 33.3008 44.8613 33.2227 44.4121 33.2227H43.3281V32.3086H44.5059C45.2441 32.2891 45.6133 31.9844 45.6133 31.3945ZM48.4336 32.7715C48.4336 32.1504 48.5547 31.5918 48.7969 31.0957C49.043 30.5996 49.3828 30.2168 49.8164 29.9473C50.2539 29.6777 50.752 29.543 51.3105 29.543C52.1738 29.543 52.8711 29.8418 53.4023 30.4395C53.9375 31.0371 54.2051 31.832 54.2051 32.8242V32.9004C54.2051 33.5176 54.0859 34.0723 53.8477 34.5645C53.6133 35.0527 53.2754 35.4336 52.834 35.707C52.3965 35.9805 51.8926 36.1172 51.3223 36.1172C50.4629 36.1172 49.7656 35.8184 49.2305 35.2207C48.6992 34.623 48.4336 33.832 48.4336 32.8477V32.7715ZM49.5234 32.9004C49.5234 33.6035 49.6855 34.168 50.0098 34.5938C50.3379 35.0195 50.7754 35.2324 51.3223 35.2324C51.873 35.2324 52.3105 35.0176 52.6348 34.5879C52.959 34.1543 53.1211 33.5488 53.1211 32.7715C53.1211 32.0762 52.9551 31.5137 52.623 31.084C52.2949 30.6504 51.8574 30.4336 51.3105 30.4336C50.7754 30.4336 50.3438 30.6465 50.0156 31.0723C49.6875 31.498 49.5234 32.1074 49.5234 32.9004ZM55.5898 35.1152L55.9648 34.6523C56.3867 34.1055 56.627 33.2852 56.6855 32.1914L56.7852 29.6602H60.8691V35.1152H61.6836V37.8633H60.5996V36H56.1758V37.8633H55.0918L55.0977 35.1152H55.5898ZM56.873 35.1152H59.7852V30.6621H57.834L57.7695 32.1738C57.7031 33.4355 57.4043 34.416 56.873 35.1152ZM64.5684 31.8457H66.2148C66.9336 31.8535 67.502 32.041 67.9199 32.4082C68.3379 32.7754 68.5469 33.2734 68.5469 33.9023C68.5469 34.5352 68.332 35.043 67.9023 35.4258C67.4727 35.8086 66.8945 36 66.168 36H63.4844V29.6602H64.5684V31.8457ZM70.8086 36H69.7188V29.6602H70.8086V36ZM64.5684 32.7305V35.1152H66.1797C66.5859 35.1152 66.9004 35.0117 67.123 34.8047C67.3457 34.5938 67.457 34.3066 67.457 33.9434C67.457 33.5918 67.3477 33.3047 67.1289 33.082C66.9141 32.8555 66.6113 32.7383 66.2207 32.7305H64.5684Z" fill="#22A2BD"/>
</svg>
