<svg width="90" height="40" viewBox="0 0 90 40" fill="none" xmlns="http://www.w3.org/2000/svg">
<path d="M53.1708 13.0302C55.9916 15.2938 57.5604 17.2948 57.0189 18.2315C56.1636 19.7097 50.3691 17.9689 44.0768 14.3431C37.7845 10.7173 33.3762 6.57978 34.231 5.10205C34.7658 4.17823 37.2296 4.51173 40.5387 5.77719" stroke="#22A2BD" stroke-width="2" stroke-miterlimit="10"/>
<path d="M45.6251 19.3331C49.8592 19.3331 53.2916 15.9007 53.2916 11.6666C53.2916 7.43244 49.8592 4 45.6251 4C41.3909 4 37.9585 7.43244 37.9585 11.6666C37.9585 15.9007 41.3909 19.3331 45.6251 19.3331Z" stroke="#22A2BD" stroke-width="2" stroke-miterlimit="10"/>
<path d="M22.6973 27.4688V36H21.5723V28.3945H18.5137L18.3613 31.7754C18.3027 32.9082 18.1855 33.7598 18.0098 34.3301C17.8379 34.9004 17.584 35.3203 17.248 35.5898C16.9121 35.8555 16.4629 35.9922 15.9004 36H15.5312V35.0801L15.7656 35.0684C16.1289 35.041 16.4082 34.9238 16.6035 34.7168C16.7988 34.5059 16.9473 34.1719 17.0488 33.7148C17.1504 33.2578 17.2227 32.5547 17.2656 31.6055L17.4414 27.4688H22.6973ZM24.7852 32.7715C24.7852 32.1504 24.9062 31.5918 25.1484 31.0957C25.3945 30.5996 25.7344 30.2168 26.168 29.9473C26.6055 29.6777 27.1035 29.543 27.6621 29.543C28.5254 29.543 29.2227 29.8418 29.7539 30.4395C30.2891 31.0371 30.5566 31.832 30.5566 32.8242V32.9004C30.5566 33.5176 30.4375 34.0723 30.1992 34.5645C29.9648 35.0527 29.627 35.4336 29.1855 35.707C28.748 35.9805 28.2441 36.1172 27.6738 36.1172C26.8145 36.1172 26.1172 35.8184 25.582 35.2207C25.0508 34.623 24.7852 33.832 24.7852 32.8477V32.7715ZM25.875 32.9004C25.875 33.6035 26.0371 34.168 26.3613 34.5938C26.6895 35.0195 27.127 35.2324 27.6738 35.2324C28.2246 35.2324 28.6621 35.0176 28.9863 34.5879C29.3105 34.1543 29.4727 33.5488 29.4727 32.7715C29.4727 32.0762 29.3066 31.5137 28.9746 31.084C28.6465 30.6504 28.209 30.4336 27.6621 30.4336C27.127 30.4336 26.6953 30.6465 26.3672 31.0723C26.0391 31.498 25.875 32.1074 25.875 32.9004ZM34.3906 33.2988H33.5996V36H32.5098V29.6602H33.5996V32.3438H34.3086L36.4414 29.6602H37.7539L35.2461 32.707L37.9648 36H36.5879L34.3906 33.2988ZM43.3105 36C43.248 35.875 43.1973 35.6523 43.1582 35.332C42.6543 35.8555 42.0527 36.1172 41.3535 36.1172C40.7285 36.1172 40.2148 35.9414 39.8125 35.5898C39.4141 35.2344 39.2148 34.7852 39.2148 34.2422C39.2148 33.582 39.4648 33.0703 39.9648 32.707C40.4688 32.3398 41.1758 32.1562 42.0859 32.1562H43.1406V31.6582C43.1406 31.2793 43.0273 30.9785 42.8008 30.7559C42.5742 30.5293 42.2402 30.416 41.7988 30.416C41.4121 30.416 41.0879 30.5137 40.8262 30.709C40.5645 30.9043 40.4336 31.1406 40.4336 31.418H39.3438C39.3438 31.1016 39.4551 30.7969 39.6777 30.5039C39.9043 30.207 40.209 29.9727 40.5918 29.8008C40.9785 29.6289 41.4023 29.543 41.8633 29.543C42.5938 29.543 43.166 29.7266 43.5801 30.0938C43.9941 30.457 44.209 30.959 44.2246 31.5996V34.5176C44.2246 35.0996 44.2988 35.5625 44.4473 35.9062V36H43.3105ZM41.5117 35.1738C41.8516 35.1738 42.1738 35.0859 42.4785 34.9102C42.7832 34.7344 43.0039 34.5059 43.1406 34.2246V32.9238H42.291C40.9629 32.9238 40.2988 33.3125 40.2988 34.0898C40.2988 34.4297 40.4121 34.6953 40.6387 34.8867C40.8652 35.0781 41.1562 35.1738 41.5117 35.1738ZM46.5176 29.6602H47.6074V35.1152H50.5254V29.6602H51.6094V35.1152H52.3652L52.2598 37.8809H51.2871V36H46.5176V29.6602ZM58.1387 29.6602H59.2227V36H58.1387V31.377L55.2148 36H54.1309V29.6602H55.2148V34.2891L58.1387 29.6602ZM65.5645 29.6602H66.6484V36H65.5645V31.377L62.6406 36H61.5566V29.6602H62.6406V34.2891L65.5645 29.6602ZM72.9902 29.6602H74.0742V36H72.9902V31.377L70.0664 36H68.9824V29.6602H70.0664V34.2891L72.9902 29.6602Z" fill="#22A2BD"/>
</svg>
