<svg width="89" height="40" viewBox="0 0 89 40" fill="none" xmlns="http://www.w3.org/2000/svg">
<path d="M46.534 10.0907C47.5884 11.1452 47.5884 12.8547 46.534 13.9091C45.4796 14.9635 43.77 14.9635 42.7156 13.9091C41.6612 12.8547 41.6612 11.1452 42.7156 10.0907C43.77 9.03632 45.4796 9.03632 46.534 10.0907" stroke="#22A2BD" stroke-width="1.5" stroke-linecap="round" stroke-linejoin="round"/>
<path d="M37.8754 12C37.8754 12.297 37.9024 12.594 37.9384 12.882L36.3504 14.124C35.9984 14.4 35.9024 14.893 36.1264 15.28L37.5384 17.723C37.7614 18.11 38.2354 18.273 38.6504 18.107L40.0724 17.536C40.3534 17.423 40.6664 17.468 40.9184 17.635C41.1384 17.781 41.3664 17.915 41.6024 18.035C41.8724 18.172 42.0684 18.417 42.1114 18.717L42.3284 20.23C42.3914 20.672 42.7704 21 43.2164 21H46.0334C46.4794 21 46.8584 20.672 46.9214 20.23L47.1384 18.718C47.1814 18.418 47.3794 18.171 47.6504 18.035C47.8854 17.917 48.1124 17.784 48.3314 17.639C48.5854 17.471 48.8994 17.423 49.1814 17.537L50.6004 18.107C51.0144 18.273 51.4884 18.11 51.7124 17.723L53.1244 15.28C53.3484 14.893 53.2524 14.399 52.9004 14.124L51.3124 12.882C51.3484 12.594 51.3754 12.297 51.3754 12C51.3754 11.703 51.3484 11.406 51.3124 11.118L52.9004 9.876C53.2524 9.6 53.3484 9.107 53.1244 8.72L51.7124 6.277C51.4894 5.89 51.0154 5.727 50.6004 5.893L49.1814 6.463C48.8994 6.576 48.5854 6.529 48.3314 6.361C48.1124 6.216 47.8854 6.083 47.6504 5.965C47.3794 5.829 47.1814 5.582 47.1384 5.282L46.9224 3.77C46.8594 3.328 46.4804 3 46.0344 3H43.2174C42.7714 3 42.3924 3.328 42.3294 3.77L42.1114 5.284C42.0684 5.583 41.8714 5.829 41.6024 5.966C41.3664 6.086 41.1384 6.221 40.9184 6.366C40.6654 6.532 40.3524 6.577 40.0714 6.464L38.6504 5.893C38.2354 5.727 37.7614 5.89 37.5384 6.277L36.1264 8.72C35.9024 9.107 35.9984 9.601 36.3504 9.876L37.9384 11.118C37.9024 11.406 37.8754 11.703 37.8754 12V12Z" stroke="#22A2BD" stroke-width="1.5" stroke-linecap="round" stroke-linejoin="round"/>
<path d="M19.6504 36H18.5195V32.0566H14.2188V36H13.0938V27.4688H14.2188V31.1367H18.5195V27.4688H19.6504V36ZM25.8926 36C25.8301 35.875 25.7793 35.6523 25.7402 35.332C25.2363 35.8555 24.6348 36.1172 23.9355 36.1172C23.3105 36.1172 22.7969 35.9414 22.3945 35.5898C21.9961 35.2344 21.7969 34.7852 21.7969 34.2422C21.7969 33.582 22.0469 33.0703 22.5469 32.707C23.0508 32.3398 23.7578 32.1562 24.668 32.1562H25.7227V31.6582C25.7227 31.2793 25.6094 30.9785 25.3828 30.7559C25.1562 30.5293 24.8223 30.416 24.3809 30.416C23.9941 30.416 23.6699 30.5137 23.4082 30.709C23.1465 30.9043 23.0156 31.1406 23.0156 31.418H21.9258C21.9258 31.1016 22.0371 30.7969 22.2598 30.5039C22.4863 30.207 22.791 29.9727 23.1738 29.8008C23.5605 29.6289 23.9844 29.543 24.4453 29.543C25.1758 29.543 25.748 29.7266 26.1621 30.0938C26.5762 30.457 26.791 30.959 26.8066 31.5996V34.5176C26.8066 35.0996 26.8809 35.5625 27.0293 35.9062V36H25.8926ZM24.0938 35.1738C24.4336 35.1738 24.7559 35.0859 25.0605 34.9102C25.3652 34.7344 25.5859 34.5059 25.7227 34.2246V32.9238H24.873C23.5449 32.9238 22.8809 33.3125 22.8809 34.0898C22.8809 34.4297 22.9941 34.6953 23.2207 34.8867C23.4473 35.0781 23.7383 35.1738 24.0938 35.1738ZM31.5488 35.2324C31.9355 35.2324 32.2734 35.1152 32.5625 34.8809C32.8516 34.6465 33.0117 34.3535 33.043 34.002H34.0684C34.0488 34.3652 33.9238 34.7109 33.6934 35.0391C33.4629 35.3672 33.1543 35.6289 32.7676 35.8242C32.3848 36.0195 31.9785 36.1172 31.5488 36.1172C30.6855 36.1172 29.998 35.8301 29.4863 35.2559C28.9785 34.6777 28.7246 33.8887 28.7246 32.8887V32.707C28.7246 32.0898 28.8379 31.541 29.0645 31.0605C29.291 30.5801 29.6152 30.207 30.0371 29.9414C30.4629 29.6758 30.9648 29.543 31.543 29.543C32.2539 29.543 32.8438 29.7559 33.3125 30.1816C33.7852 30.6074 34.0371 31.1602 34.0684 31.8398H33.043C33.0117 31.4297 32.8555 31.0938 32.5742 30.832C32.2969 30.5664 31.9531 30.4336 31.543 30.4336C30.9922 30.4336 30.5645 30.6328 30.2598 31.0312C29.959 31.4258 29.8086 31.998 29.8086 32.748V32.9531C29.8086 33.6836 29.959 34.2461 30.2598 34.6406C30.5605 35.0352 30.9902 35.2324 31.5488 35.2324ZM40.498 30.5391H38.3711V36H37.2871V30.5391H35.2012V29.6602H40.498V30.5391ZM47.4082 32.9004C47.4082 33.8652 47.1875 34.6426 46.7461 35.2324C46.3047 35.8223 45.707 36.1172 44.9531 36.1172C44.1836 36.1172 43.5781 35.873 43.1367 35.3848V38.4375H42.0527V29.6602H43.043L43.0957 30.3633C43.5371 29.8164 44.1504 29.543 44.9355 29.543C45.6973 29.543 46.2988 29.8301 46.7402 30.4043C47.1855 30.9785 47.4082 31.7773 47.4082 32.8008V32.9004ZM46.3242 32.7773C46.3242 32.0625 46.1719 31.498 45.8672 31.084C45.5625 30.6699 45.1445 30.4629 44.6133 30.4629C43.957 30.4629 43.4648 30.7539 43.1367 31.3359V34.3652C43.4609 34.9434 43.957 35.2324 44.625 35.2324C45.1445 35.2324 45.5566 35.0273 45.8613 34.6172C46.1699 34.2031 46.3242 33.5898 46.3242 32.7773ZM49.0039 32.7715C49.0039 32.1504 49.125 31.5918 49.3672 31.0957C49.6133 30.5996 49.9531 30.2168 50.3867 29.9473C50.8242 29.6777 51.3223 29.543 51.8809 29.543C52.7441 29.543 53.4414 29.8418 53.9727 30.4395C54.5078 31.0371 54.7754 31.832 54.7754 32.8242V32.9004C54.7754 33.5176 54.6562 34.0723 54.418 34.5645C54.1836 35.0527 53.8457 35.4336 53.4043 35.707C52.9668 35.9805 52.4629 36.1172 51.8926 36.1172C51.0332 36.1172 50.3359 35.8184 49.8008 35.2207C49.2695 34.623 49.0039 33.832 49.0039 32.8477V32.7715ZM50.0938 32.9004C50.0938 33.6035 50.2559 34.168 50.5801 34.5938C50.9082 35.0195 51.3457 35.2324 51.8926 35.2324C52.4434 35.2324 52.8809 35.0176 53.2051 34.5879C53.5293 34.1543 53.6914 33.5488 53.6914 32.7715C53.6914 32.0762 53.5254 31.5137 53.1934 31.084C52.8652 30.6504 52.4277 30.4336 51.8809 30.4336C51.3457 30.4336 50.9141 30.6465 50.5859 31.0723C50.2578 31.498 50.0938 32.1074 50.0938 32.9004ZM60.7363 29.6602H61.8203V36H60.7363V31.377L57.8125 36H56.7285V29.6602H57.8125V34.2891L60.7363 29.6602ZM61.0293 27.3516C61.0293 27.8242 60.8672 28.2051 60.543 28.4941C60.2227 28.7793 59.8008 28.9219 59.2773 28.9219C58.7539 28.9219 58.3301 28.7773 58.0059 28.4883C57.6816 28.1992 57.5195 27.8203 57.5195 27.3516H58.4043C58.4043 27.625 58.4785 27.8398 58.627 27.9961C58.7754 28.1484 58.9922 28.2246 59.2773 28.2246C59.5508 28.2246 59.7637 28.1484 59.916 27.9961C60.0723 27.8438 60.1504 27.6289 60.1504 27.3516H61.0293ZM66.0352 33.2988H65.2441V36H64.1543V29.6602H65.2441V32.3438H65.9531L68.0859 29.6602H69.3984L66.8906 32.707L69.6094 36H68.2324L66.0352 33.2988ZM75.1426 29.6602H76.2266V36H75.1426V31.377L72.2188 36H71.1348V29.6602H72.2188V34.2891L75.1426 29.6602Z" fill="#22A2BD"/>
</svg>
